<svg xmlns="http://www.w3.org/2000/svg" xmlns:xlink="http://www.w3.org/1999/xlink" width="500" zoomAndPan="magnify" viewBox="0 0 375 374.999991" height="500" preserveAspectRatio="xMidYMid meet" version="1.0"><defs><g/><clipPath id="7d8c32b625"><path d="M 0.371094 0.371094 L 375 0.371094 L 375 375 L 0.371094 375 Z M 0.371094 0.371094 " clip-rule="nonzero"/></clipPath><clipPath id="9fec9eeba0"><path d="M 136 156 L 235 156 L 235 267.464844 L 136 267.464844 Z M 136 156 " clip-rule="nonzero"/></clipPath><clipPath id="8a9615d4bd"><path d="M 123 111.054688 L 248 111.054688 L 248 170 L 123 170 Z M 123 111.054688 " clip-rule="nonzero"/></clipPath></defs><g clip-path="url(#7d8c32b625)"><path fill="#fbbe28" d="M 363.621094 237.769531 C 358.871094 253.945312 351.613281 269.296875 342.609375 283.433594 C 335.175781 294.9375 326.722656 305.75 317.226562 315.585938 C 315.996094 316.929688 314.625 318.128906 313.320312 319.398438 C 311.996094 320.644531 310.707031 321.929688 309.351562 323.144531 L 305.234375 326.726562 L 303.175781 328.519531 L 301.039062 330.214844 L 296.777344 333.621094 C 295.332031 334.726562 293.839844 335.769531 292.378906 336.851562 C 289.488281 339.066406 286.410156 341.011719 283.398438 343.0625 C 282.964844 343.355469 282.507812 343.660156 282.03125 343.980469 C 281.539062 344.273438 281.03125 344.582031 280.496094 344.902344 C 279.433594 345.535156 278.292969 346.21875 277.074219 346.945312 C 274.667969 348.460938 271.820312 349.882812 268.746094 351.515625 C 267.972656 351.914062 267.199219 352.351562 266.378906 352.742188 C 265.558594 353.125 264.71875 353.515625 263.867188 353.910156 C 262.15625 354.699219 260.386719 355.515625 258.558594 356.359375 C 254.816406 357.824219 250.910156 359.582031 246.652344 360.945312 C 229.835938 367.042969 208.851562 370.8125 187.792969 370.898438 C 166.738281 370.8125 145.75 367.042969 128.9375 360.945312 C 124.679688 359.582031 120.773438 357.824219 117.027344 356.359375 C 115.203125 355.515625 113.433594 354.699219 111.722656 353.910156 C 110.871094 353.515625 110.03125 353.125 109.210938 352.742188 C 108.390625 352.351562 107.617188 351.914062 106.84375 351.515625 C 103.769531 349.882812 100.921875 348.460938 98.515625 346.949219 C 97.296875 346.21875 96.15625 345.535156 95.09375 344.902344 C 94.5625 344.582031 94.050781 344.273438 93.558594 343.980469 C 93.082031 343.660156 92.625 343.355469 92.191406 343.0625 C 80.753906 335.566406 70.003906 327.050781 60.234375 317.484375 C 49.929688 307.191406 40.921875 295.660156 32.980469 283.433594 C 23.972656 269.296875 16.71875 253.945312 11.964844 237.769531 C 7.019531 221.640625 4.730469 204.71875 4.582031 187.792969 C 4.730469 170.871094 7.019531 153.945312 11.964844 137.820312 C 16.71875 121.640625 23.972656 106.292969 32.980469 92.15625 C 40.410156 80.652344 48.863281 69.839844 58.363281 60.003906 C 59.59375 58.660156 60.964844 57.457031 62.265625 56.191406 C 63.59375 54.945312 64.882812 53.65625 66.234375 52.441406 L 70.351562 48.863281 L 72.410156 47.066406 L 74.546875 45.375 L 78.8125 41.964844 C 80.257812 40.863281 81.746094 39.816406 83.210938 38.734375 C 86.101562 36.523438 89.179688 34.574219 92.191406 32.527344 C 92.625 32.234375 93.082031 31.929688 93.558594 31.609375 C 94.046875 31.316406 94.558594 31.007812 95.089844 30.6875 C 96.152344 30.050781 97.296875 29.367188 98.515625 28.640625 C 100.921875 27.128906 103.769531 25.707031 106.84375 24.070312 C 107.617188 23.671875 108.390625 23.238281 109.210938 22.847656 C 110.03125 22.464844 110.867188 22.074219 111.722656 21.679688 C 113.429688 20.890625 115.203125 20.070312 117.027344 19.226562 C 120.773438 17.761719 124.679688 16.003906 128.9375 14.640625 C 145.75 8.542969 166.734375 4.777344 187.792969 4.6875 C 208.851562 4.777344 229.835938 8.542969 246.648438 14.640625 C 250.910156 16.003906 254.8125 17.761719 258.558594 19.226562 C 260.386719 20.070312 262.15625 20.890625 263.863281 21.679688 C 264.71875 22.074219 265.558594 22.464844 266.378906 22.84375 C 267.195312 23.234375 267.972656 23.671875 268.746094 24.070312 C 271.816406 25.703125 274.667969 27.128906 277.070312 28.640625 C 278.289062 29.367188 279.433594 30.050781 280.496094 30.6875 C 281.027344 31.007812 281.539062 31.3125 282.03125 31.609375 C 282.503906 31.929688 282.960938 32.234375 283.394531 32.527344 C 294.835938 40.023438 305.582031 48.539062 315.351562 58.105469 C 325.65625 68.398438 334.664062 79.925781 342.609375 92.152344 C 351.613281 106.289062 358.871094 121.640625 363.621094 137.820312 C 368.570312 153.945312 370.855469 170.871094 371.003906 187.792969 C 370.855469 204.71875 368.570312 221.640625 363.621094 237.769531 Z M 375.214844 187.671875 L 375.210938 187.65625 C 375.058594 170.375 372.734375 153.082031 367.699219 136.59375 C 362.855469 120.054688 355.441406 104.355469 346.195312 89.9375 L 341.75 83.257812 C 341.75 83.257812 340.464844 81.460938 338.539062 78.765625 C 336.683594 76.015625 333.847656 72.628906 331.136719 69.140625 C 328.214844 65.832031 325.414062 62.417969 323.054688 60.089844 C 320.765625 57.695312 319.238281 56.105469 319.238281 56.105469 C 319.238281 56.105469 318.855469 55.710938 318.160156 55.042969 C 317.464844 54.371094 316.472656 53.414062 315.285156 52.265625 C 312.960938 49.898438 309.589844 47.050781 306.285156 44.125 C 304.589844 42.71875 302.84375 41.367188 301.230469 40.070312 C 300.421875 39.425781 299.640625 38.804688 298.898438 38.210938 C 298.128906 37.65625 297.402344 37.132812 296.730469 36.648438 C 294.046875 34.710938 292.257812 33.421875 292.257812 33.421875 C 292.257812 33.421875 291.867188 33.105469 291.238281 32.695312 C 290.613281 32.28125 289.78125 31.722656 288.949219 31.164062 C 287.285156 30.050781 285.617188 28.9375 285.617188 28.9375 C 285.171875 28.636719 284.707031 28.320312 284.222656 27.992188 C 283.722656 27.6875 283.199219 27.375 282.65625 27.046875 C 281.570312 26.390625 280.398438 25.691406 279.15625 24.941406 C 276.695312 23.390625 273.785156 21.929688 270.640625 20.253906 C 269.851562 19.84375 269.054688 19.398438 268.222656 18.996094 C 267.378906 18.601562 266.523438 18.203125 265.652344 17.796875 C 263.902344 16.988281 262.089844 16.148438 260.222656 15.28125 C 256.390625 13.777344 252.394531 11.980469 248.035156 10.578125 C 230.828125 4.328125 209.339844 0.457031 187.792969 0.371094 C 166.246094 0.457031 144.761719 4.328125 127.550781 10.578125 C 123.195312 11.980469 119.195312 13.777344 115.367188 15.285156 C 113.496094 16.148438 111.6875 16.988281 109.9375 17.800781 C 109.0625 18.207031 108.207031 18.605469 107.367188 18.996094 C 106.53125 19.398438 105.734375 19.84375 104.945312 20.253906 C 101.800781 21.929688 98.890625 23.390625 96.429688 24.941406 C 95.1875 25.691406 94.019531 26.394531 92.929688 27.046875 C 92.390625 27.375 91.867188 27.691406 91.367188 27.992188 C 90.878906 28.324219 90.414062 28.636719 89.96875 28.9375 C 89.96875 28.9375 88.304688 30.050781 86.640625 31.164062 C 85.808594 31.722656 84.976562 32.28125 84.351562 32.699219 C 83.722656 33.105469 83.332031 33.421875 83.332031 33.421875 C 83.332031 33.421875 81.542969 34.710938 78.859375 36.648438 C 78.1875 37.132812 77.460938 37.65625 76.691406 38.210938 C 75.949219 38.804688 75.167969 39.425781 74.355469 40.070312 C 72.746094 41.367188 71 42.71875 69.300781 44.125 C 65.996094 47.050781 62.628906 49.898438 60.304688 52.265625 C 59.113281 53.414062 58.125 54.371094 57.429688 55.042969 C 56.734375 55.710938 56.347656 56.105469 56.347656 56.105469 C 56.347656 56.105469 54.820312 57.695312 52.53125 60.089844 C 50.175781 62.417969 47.375 65.832031 44.453125 69.140625 C 41.742188 72.628906 38.902344 76.015625 37.046875 78.765625 C 35.121094 81.460938 33.835938 83.257812 33.835938 83.257812 L 29.390625 89.9375 C 20.148438 104.355469 12.730469 120.054688 7.886719 136.59375 C 2.851562 153.082031 0.53125 170.375 0.375 187.65625 L 0.371094 187.671875 L 0.371094 187.917969 L 0.375 187.933594 C 0.53125 205.214844 2.851562 222.507812 7.886719 238.996094 C 12.730469 255.535156 20.148438 271.230469 29.390625 285.648438 L 33.835938 292.328125 C 33.835938 292.328125 35.121094 294.128906 37.046875 296.820312 C 38.902344 299.574219 41.742188 302.960938 44.453125 306.445312 C 47.375 309.753906 50.175781 313.171875 52.53125 315.5 C 54.820312 317.890625 56.347656 319.484375 56.347656 319.484375 C 56.347656 319.484375 56.734375 319.878906 57.429688 320.546875 C 58.125 321.214844 59.113281 322.175781 60.304688 323.324219 C 62.628906 325.691406 65.996094 328.539062 69.300781 331.460938 C 71 332.871094 72.746094 334.222656 74.355469 335.519531 C 75.167969 336.164062 75.949219 336.785156 76.691406 337.375 C 77.460938 337.929688 78.1875 338.453125 78.859375 338.9375 C 81.542969 340.875 83.332031 342.167969 83.332031 342.167969 C 83.332031 342.167969 83.722656 342.484375 84.351562 342.890625 C 84.976562 343.308594 85.808594 343.867188 86.640625 344.421875 C 88.304688 345.539062 89.96875 346.652344 89.96875 346.652344 C 90.414062 346.953125 90.878906 347.265625 91.367188 347.59375 C 91.867188 347.898438 92.390625 348.214844 92.933594 348.542969 C 94.019531 349.195312 95.1875 349.898438 96.433594 350.644531 C 98.890625 352.195312 101.804688 353.660156 104.945312 355.335938 C 105.738281 355.746094 106.53125 356.191406 107.367188 356.59375 C 108.207031 356.984375 109.066406 357.382812 109.9375 357.792969 C 111.6875 358.601562 113.5 359.441406 115.367188 360.304688 C 119.199219 361.8125 123.195312 363.605469 127.554688 365.011719 C 144.761719 371.261719 166.246094 375.132812 187.792969 375.21875 C 209.339844 375.132812 230.828125 371.261719 248.035156 365.007812 C 252.394531 363.605469 256.390625 361.808594 260.222656 360.304688 C 262.089844 359.441406 263.902344 358.601562 265.652344 357.789062 C 266.523438 357.382812 267.382812 356.984375 268.222656 356.59375 C 269.058594 356.191406 269.851562 355.746094 270.644531 355.335938 C 273.785156 353.660156 276.699219 352.195312 279.15625 350.644531 C 280.402344 349.898438 281.570312 349.195312 282.65625 348.542969 C 283.199219 348.214844 283.722656 347.898438 284.222656 347.59375 C 284.710938 347.265625 285.175781 346.953125 285.621094 346.652344 C 285.621094 346.652344 287.285156 345.539062 288.949219 344.421875 C 289.78125 343.867188 290.613281 343.308594 291.238281 342.890625 C 291.867188 342.484375 292.257812 342.167969 292.257812 342.167969 C 292.257812 342.167969 294.046875 340.875 296.730469 338.9375 C 297.402344 338.453125 298.128906 337.929688 298.898438 337.375 C 299.640625 336.785156 300.421875 336.164062 301.230469 335.519531 C 302.84375 334.222656 304.589844 332.871094 306.285156 331.460938 C 309.589844 328.539062 312.960938 325.691406 315.285156 323.324219 C 316.472656 322.175781 317.464844 321.214844 318.160156 320.546875 C 318.855469 319.878906 319.238281 319.484375 319.238281 319.484375 C 319.238281 319.484375 320.765625 317.890625 323.054688 315.5 C 325.414062 313.171875 328.214844 309.753906 331.136719 306.445312 C 333.847656 302.960938 336.6875 299.570312 338.539062 296.820312 C 340.46875 294.125 341.75 292.328125 341.75 292.328125 L 346.195312 285.648438 C 355.441406 271.230469 362.855469 255.53125 367.699219 238.996094 C 372.734375 222.503906 375.058594 205.214844 375.210938 187.933594 L 375.214844 187.917969 L 375.21875 187.792969 L 375.214844 187.671875 " fill-opacity="1" fill-rule="nonzero"/></g><path stroke-linecap="round" transform="matrix(2.707112, 0, 0, 2.925274, 0.370894, 187.274913)" fill="none" stroke-linejoin="miter" d="M 0.499337 -0.000504501 L 25.905509 -0.000504501 " stroke="#fbbe28" stroke-width="1" stroke-opacity="1" stroke-miterlimit="4"/><path stroke-linecap="round" transform="matrix(2.707112, 0, 0, 2.925274, 303.789887, 187.274913)" fill="none" stroke-linejoin="miter" d="M 0.500402 -0.000504501 L 25.906574 -0.000504501 " stroke="#fbbe28" stroke-width="1" stroke-opacity="1" stroke-miterlimit="4"/><g clip-path="url(#9fec9eeba0)"><path fill="#fbbe28" d="M 136.292969 251.207031 C 136.292969 260.203125 143.617188 267.464844 152.679688 267.464844 L 218.007812 267.464844 C 227.035156 267.464844 234.390625 260.203125 234.390625 251.207031 L 234.390625 156.675781 L 227.851562 156.675781 L 227.851562 251.207031 C 227.851562 256.570312 223.457031 260.949219 218.007812 260.949219 L 152.679688 260.949219 C 147.226562 260.949219 142.835938 256.605469 142.835938 251.207031 L 142.835938 156.675781 L 136.292969 156.675781 Z M 136.292969 251.207031 " fill-opacity="1" fill-rule="nonzero"/></g><path fill="#fbbe28" d="M 250.707031 176.226562 C 256.15625 176.226562 260.550781 180.570312 260.550781 186.003906 L 260.550781 225.105469 C 260.550781 230.5 256.15625 234.878906 250.707031 234.878906 L 231.121094 234.878906 L 231.121094 241.398438 L 250.707031 241.398438 C 259.769531 241.398438 267.089844 234.101562 267.089844 225.105469 L 267.089844 186.003906 C 267.089844 176.972656 259.769531 169.710938 250.707031 169.710938 L 231.121094 169.710938 L 231.121094 176.226562 Z M 250.707031 176.226562 " fill-opacity="1" fill-rule="nonzero"/><path fill="#fbbe28" d="M 201.691406 238.140625 C 201.691406 239.9375 203.15625 241.398438 204.960938 241.398438 C 206.769531 241.398438 208.230469 239.9375 208.230469 238.140625 L 208.230469 179.484375 C 208.230469 177.6875 206.769531 176.226562 204.960938 176.226562 C 203.15625 176.226562 201.691406 177.6875 201.691406 179.484375 Z M 201.691406 238.140625 " fill-opacity="1" fill-rule="nonzero"/><path fill="#fbbe28" d="M 182.074219 238.140625 C 182.074219 239.9375 183.539062 241.398438 185.34375 241.398438 C 187.148438 241.398438 188.613281 239.9375 188.613281 238.140625 L 188.613281 179.484375 C 188.613281 177.6875 187.148438 176.226562 185.34375 176.226562 C 183.539062 176.226562 182.074219 177.6875 182.074219 179.484375 Z M 182.074219 238.140625 " fill-opacity="1" fill-rule="nonzero"/><path fill="#fbbe28" d="M 162.453125 238.140625 C 162.453125 239.9375 163.917969 241.398438 165.722656 241.398438 C 167.527344 241.398438 168.992188 239.9375 168.992188 238.140625 L 168.992188 179.484375 C 168.992188 177.6875 167.527344 176.226562 165.722656 176.226562 C 163.917969 176.226562 162.453125 177.6875 162.453125 179.484375 Z M 162.453125 238.140625 " fill-opacity="1" fill-rule="nonzero"/><g clip-path="url(#8a9615d4bd)"><path fill="#fbbe28" d="M 182.074219 163.191406 C 178.972656 163.191406 176.011719 162.648438 173.285156 161.664062 C 170.425781 166.484375 165.179688 169.710938 159.183594 169.710938 C 153.359375 169.710938 148.285156 166.6875 145.355469 162.140625 C 143.550781 162.820312 141.609375 163.191406 139.5625 163.191406 C 130.539062 163.191406 123.214844 155.894531 123.214844 146.898438 C 123.214844 138.921875 128.972656 132.269531 136.566406 130.878906 C 137.964844 123.308594 144.640625 117.574219 152.644531 117.574219 C 156.117188 117.574219 159.320312 118.660156 161.941406 120.457031 C 166.746094 114.722656 173.964844 111.054688 182.074219 111.054688 C 190.621094 111.054688 198.21875 115.164062 202.988281 121.476562 C 206.289062 119.03125 210.34375 117.574219 214.773438 117.574219 C 223.355469 117.574219 230.679688 123.070312 233.335938 130.742188 C 241.304688 131.828125 247.472656 138.652344 247.472656 146.898438 C 247.472656 155.894531 240.148438 163.191406 231.121094 163.191406 C 227.441406 163.191406 224.035156 161.96875 221.3125 159.933594 C 218.585938 161.96875 215.179688 163.191406 211.503906 163.191406 C 206.394531 163.191406 201.792969 160.851562 198.796875 157.148438 C 194.265625 160.917969 188.441406 163.191406 182.074219 163.191406 Z M 168.515625 156.4375 C 169.128906 154.503906 171.34375 153.621094 173.113281 154.535156 C 175.875 155.929688 178.90625 156.675781 182.074219 156.675781 C 187.863281 156.675781 193.246094 154.164062 196.957031 149.851562 C 198.558594 148.019531 201.523438 148.460938 202.476562 150.699219 C 203.976562 154.300781 207.515625 156.675781 211.503906 156.675781 C 214.363281 156.675781 217.019531 155.453125 218.859375 153.347656 C 220.152344 151.890625 222.46875 151.890625 223.765625 153.347656 C 225.605469 155.453125 228.261719 156.675781 231.121094 156.675781 C 236.539062 156.675781 240.929688 152.296875 240.929688 146.898438 C 240.929688 141.503906 236.539062 137.125 230.882812 137.125 C 229.28125 137.15625 227.921875 136.070312 227.578125 134.511719 C 226.351562 128.503906 221.003906 124.089844 214.773438 124.089844 C 210.890625 124.089844 207.3125 125.785156 204.828125 128.636719 C 203.328125 130.402344 200.535156 130.097656 199.445312 128.0625 C 196.074219 121.644531 189.429688 117.574219 182.074219 117.574219 C 175.125 117.574219 168.824219 121.171875 165.28125 126.976562 C 164.15625 128.875 161.5 129.113281 160.035156 127.449219 C 158.195312 125.3125 155.503906 124.089844 152.644531 124.089844 C 147.226562 124.089844 142.835938 128.46875 142.835938 133.867188 C 142.835938 135.664062 141.371094 137.125 139.5625 137.125 C 134.148438 137.125 129.753906 141.503906 129.753906 146.898438 C 129.753906 152.296875 134.148438 156.675781 139.5625 156.675781 C 141.539062 156.675781 143.414062 156.097656 145.015625 155.011719 C 146.785156 153.824219 149.203125 154.636719 149.917969 156.640625 C 151.28125 160.542969 154.992188 163.191406 159.183594 163.191406 C 163.476562 163.191406 167.222656 160.441406 168.515625 156.4375 Z M 168.515625 156.4375 " fill-opacity="1" fill-rule="evenodd"/></g><g fill="#fbbe28" fill-opacity="1"><g transform="translate(103.636595, 93.694285)"><g><path d="M 15.371094 -9.570312 C 24.394531 -15.1875 23.78125 -21.5 20.871094 -26.175781 C 18.90625 -29.328125 15.449219 -31.488281 10.828125 -30.480469 C 12.585938 -33.808594 12.296875 -37.429688 10.265625 -40.691406 C 7.234375 -45.558594 2.105469 -47.644531 -5.984375 -42.609375 L -16.59375 -36.003906 C -17.179688 -35.640625 -17.296875 -35.148438 -16.929688 -34.558594 L 2.75 -2.949219 C 3.113281 -2.363281 3.609375 -2.246094 4.195312 -2.613281 Z M -8.003906 -33.839844 L -2.746094 -37.117188 C 1.539062 -39.78125 3.714844 -38.753906 5.21875 -36.34375 C 6.828125 -33.753906 6.851562 -31.296875 3.265625 -29.0625 L -2.714844 -25.339844 Z M 0.304688 -20.492188 L 6.371094 -24.269531 C 10.242188 -26.675781 12.734375 -25.578125 14.347656 -22.988281 C 15.875 -20.53125 16.390625 -17.714844 11.828125 -14.875 L 6.042969 -11.273438 Z M 0.304688 -20.492188 "/></g></g></g><g fill="#fbbe28" fill-opacity="1"><g transform="translate(138.541218, 74.077655)"><g><path d="M 9.511719 -3.207031 C 10.167969 -3.429688 10.394531 -3.882812 10.171875 -4.539062 L -1.726562 -39.820312 C -1.945312 -40.476562 -2.402344 -40.703125 -3.054688 -40.480469 L -7.886719 -38.851562 C -8.539062 -38.632812 -8.765625 -38.179688 -8.546875 -37.523438 L 3.351562 -2.238281 C 3.574219 -1.582031 4.027344 -1.359375 4.683594 -1.578125 Z M 9.511719 -3.207031 "/></g></g></g><g fill="#fbbe28" fill-opacity="1"><g transform="translate(158.736228, 67.158004)"><g><path d="M 25.992188 -2.832031 C 26.679688 -2.90625 27 -3.300781 26.921875 -3.988281 L 26.460938 -8.242188 C 26.386719 -8.902344 25.992188 -9.246094 25.304688 -9.171875 L 10.332031 -7.539062 L 9.621094 -14.082031 L 22.554688 -15.492188 C 23.242188 -15.566406 23.558594 -15.960938 23.484375 -16.648438 L 23.050781 -20.621094 C 22.976562 -21.308594 22.582031 -21.625 21.894531 -21.550781 L 8.960938 -20.140625 L 7.453125 -33.964844 L 22.425781 -35.597656 C 23.113281 -35.671875 23.425781 -36.09375 23.355469 -36.753906 L 22.890625 -41.007812 C 22.816406 -41.695312 22.421875 -42.011719 21.734375 -41.9375 L 0.652344 -39.640625 C -0.0351562 -39.566406 -0.351562 -39.167969 -0.277344 -38.484375 L 3.757812 -1.464844 C 3.832031 -0.777344 4.226562 -0.460938 4.914062 -0.535156 Z M 25.992188 -2.832031 "/></g></g></g><g fill="#fbbe28" fill-opacity="1"><g transform="translate(193.342339, 63.69587)"><g><path d="M 28.128906 -9.363281 C 32.71875 -10.601562 35.65625 -14.238281 36.699219 -20.0625 C 38.089844 -27.851562 35 -33.710938 24.335938 -35.613281 L 11.777344 -37.855469 C 11.097656 -37.976562 10.683594 -37.6875 10.5625 -37.007812 L 4.015625 -0.347656 C 3.894531 0.332031 4.183594 0.746094 4.867188 0.867188 L 9.882812 1.765625 C 10.5625 1.886719 10.980469 1.597656 11.101562 0.914062 L 13.15625 -10.605469 L 20.695312 -9.261719 L 20.921875 -9.21875 L 24.746094 3.613281 C 24.902344 4.1875 25.210938 4.5 25.789062 4.605469 L 31.5625 5.636719 C 32.34375 5.773438 32.761719 5.328125 32.539062 4.535156 Z M 16.707031 -30.496094 L 22.304688 -29.5 C 25.078125 -29.003906 30.84375 -27.921875 29.65625 -21.265625 C 28.429688 -14.410156 22.339844 -15.417969 19.871094 -15.859375 L 14.273438 -16.859375 Z M 16.707031 -30.496094 "/></g></g></g><g fill="#fbbe28" fill-opacity="1"><g transform="translate(232.721294, 70.560961)"><g><path d="M 19.582031 12.1875 C 30.003906 18.109375 41.808594 15.273438 47.878906 4.585938 C 53.941406 -6.078125 50.347656 -17.691406 39.929688 -23.613281 C 29.53125 -29.523438 17.738281 -26.652344 11.675781 -15.988281 C 5.601562 -5.300781 9.183594 6.28125 19.582031 12.1875 Z M 22.886719 6.378906 C 16.183594 2.570312 13.832031 -5.160156 17.957031 -12.417969 C 22.09375 -19.699219 29.902344 -21.625 36.625 -17.800781 C 43.351562 -13.980469 45.761719 -6.25 41.625 1.03125 C 37.484375 8.3125 29.609375 10.199219 22.886719 6.378906 Z M 22.886719 6.378906 "/></g></g></g><g fill="#fbbe28" fill-opacity="1"><g transform="translate(40.590159, 256.705647)"><g><path d="M 30.0625 1.25 C 29.878906 0.902344 29.597656 0.792969 29.210938 0.890625 L 13.242188 5.285156 L 25.832031 -5.476562 C 26.128906 -5.742188 26.195312 -6.035156 26.011719 -6.378906 L 24.003906 -10.164062 C 23.808594 -10.539062 23.5 -10.632812 23.128906 -10.433594 L 1.335938 1.128906 C 0.960938 1.328125 0.867188 1.632812 1.066406 2.007812 L 2.464844 4.644531 C 2.664062 5.019531 2.96875 5.113281 3.34375 4.914062 L 16.246094 -1.933594 L 16.351562 -1.730469 L 4.898438 7.984375 C 4.597656 8.253906 4.535156 8.546875 4.714844 8.890625 L 5.460938 10.292969 C 5.644531 10.636719 5.921875 10.746094 6.3125 10.652344 L 20.78125 6.613281 L 20.886719 6.8125 L 7.984375 13.660156 C 7.609375 13.859375 7.515625 14.164062 7.714844 14.539062 L 9.128906 17.207031 C 9.328125 17.578125 9.632812 17.671875 10.007812 17.472656 L 31.800781 5.910156 C 32.171875 5.714844 32.265625 5.40625 32.070312 5.035156 Z M 30.0625 1.25 "/></g></g></g><g fill="#fbbe28" fill-opacity="1"><g transform="translate(56.078156, 283.609135)"><g><path d="M 21.476562 -14.675781 C 21.277344 -14.933594 21.003906 -14.96875 20.746094 -14.769531 L 18.175781 -12.789062 C 17.917969 -12.589844 17.882812 -12.316406 18.082031 -12.058594 L 20.382812 -9.078125 L 3.621094 3.847656 C 3.339844 4.066406 3.332031 4.320312 3.527344 4.574219 L 5.589844 7.25 C 5.808594 7.53125 6.035156 7.5625 6.320312 7.34375 L 23.078125 -5.582031 L 25.378906 -2.601562 C 25.597656 -2.316406 25.851562 -2.308594 26.105469 -2.507812 L 28.675781 -4.488281 C 28.933594 -4.6875 28.988281 -4.933594 28.769531 -5.21875 Z M 21.476562 -14.675781 "/></g></g></g><g fill="#fbbe28" fill-opacity="1"><g transform="translate(71.236418, 302.217289)"><g><path d="M 7.324219 1.082031 L 12.902344 6.429688 C 13.160156 6.675781 13.144531 6.929688 12.917969 7.164062 L 10.671875 9.507812 C 10.425781 9.765625 10.195312 9.769531 9.9375 9.523438 L 1.546875 1.480469 C 1.3125 1.257812 1.285156 1.003906 1.53125 0.746094 L 18.78125 -17.253906 C 19.003906 -17.488281 19.277344 -17.492188 19.511719 -17.269531 L 21.953125 -14.933594 C 22.210938 -14.6875 22.191406 -14.433594 21.96875 -14.199219 Z M 7.324219 1.082031 "/></g></g></g><g fill="#fbbe28" fill-opacity="1"><g transform="translate(89.602583, 318.698439)"><g/></g></g><g fill="#fbbe28" fill-opacity="1"><g transform="translate(103.386962, 328.519479)"><g><path d="M 23.15625 -11.476562 C 24.640625 -14.140625 23.984375 -16.363281 21.316406 -17.851562 L 14.511719 -21.640625 C 14.230469 -21.800781 13.980469 -21.753906 13.804688 -21.441406 L 1.671875 0.335938 C 1.511719 0.621094 1.589844 0.886719 1.871094 1.042969 L 8.675781 4.835938 C 11.34375 6.320312 13.578125 5.707031 15.0625 3.042969 L 17.972656 -2.175781 C 18.554688 -3.222656 18.234375 -4.445312 17.308594 -5.183594 L 17.339844 -5.238281 C 18.453125 -4.839844 19.664062 -5.207031 20.246094 -6.257812 Z M 16.996094 -9.296875 C 16.601562 -8.585938 15.984375 -8.410156 15.246094 -8.820312 L 12.667969 -10.257812 L 15.859375 -15.988281 L 18.4375 -14.550781 C 19.203125 -14.121094 19.351562 -13.519531 18.941406 -12.78125 Z M 11.734375 0.148438 C 11.308594 0.914062 10.707031 1.0625 9.96875 0.648438 L 7.386719 -0.789062 L 10.582031 -6.515625 L 13.160156 -5.078125 C 13.925781 -4.652344 14.074219 -4.050781 13.664062 -3.3125 Z M 11.734375 0.148438 "/></g></g></g><g fill="#fbbe28" fill-opacity="1"><g transform="translate(125.642198, 339.973085)"><g><path d="M 11.65625 -23.304688 C 11.324219 -23.4375 11.101562 -23.316406 10.980469 -23.015625 L 1.699219 0.121094 C 1.578125 0.421875 1.65625 0.664062 1.988281 0.796875 L 5.121094 2.054688 C 5.421875 2.175781 5.675781 2.066406 5.796875 1.765625 L 15.078125 -21.371094 C 15.199219 -21.675781 15.089844 -21.925781 14.789062 -22.046875 Z M 11.65625 -23.304688 "/></g></g></g><g fill="#fbbe28" fill-opacity="1"><g transform="translate(141.012683, 345.829135)"><g><path d="M 20.519531 -20.953125 C 20.601562 -21.269531 20.523438 -21.488281 20.148438 -21.589844 L 8.585938 -24.597656 C 8.304688 -24.671875 8.066406 -24.535156 7.984375 -24.21875 L 1.703125 -0.09375 C 1.621094 0.21875 1.757812 0.457031 2.042969 0.53125 L 13.601562 3.542969 C 13.980469 3.640625 14.152344 3.484375 14.234375 3.171875 L 15.054688 0.03125 C 15.144531 -0.316406 15.058594 -0.503906 14.683594 -0.605469 L 6.828125 -2.648438 L 8.480469 -8.996094 L 14.480469 -7.433594 C 14.796875 -7.351562 15.03125 -7.488281 15.121094 -7.835938 L 15.933594 -10.945312 C 16.023438 -11.289062 15.882812 -11.527344 15.570312 -11.609375 L 9.570312 -13.171875 L 11.207031 -19.457031 L 19.058594 -17.410156 C 19.4375 -17.3125 19.617188 -17.5 19.699219 -17.8125 Z M 20.519531 -20.953125 "/></g></g></g><g fill="#fbbe28" fill-opacity="1"><g transform="translate(165.706978, 351.538904)"><g><path d="M 16.988281 -19.71875 C 17.289062 -22.757812 15.832031 -24.53125 12.796875 -24.832031 L 4.6875 -25.632812 C 4.363281 -25.664062 4.152344 -25.488281 4.117188 -25.167969 L 1.667969 -0.355469 C 1.632812 -0.0351562 1.808594 0.179688 2.132812 0.210938 L 5.492188 0.542969 C 5.816406 0.574219 6.027344 0.398438 6.058594 0.078125 L 6.863281 -8.0625 L 9.09375 -7.84375 L 10.445312 0.574219 C 10.484375 0.875 10.628906 1.050781 10.949219 1.082031 L 14.3125 1.414062 C 14.667969 1.449219 14.878906 1.273438 14.820312 0.878906 L 13.429688 -7.804688 C 15.046875 -8.332031 15.992188 -9.671875 16.207031 -11.835938 Z M 7.285156 -12.328125 L 8.140625 -20.984375 L 11.339844 -20.667969 C 12.179688 -20.585938 12.585938 -20.089844 12.503906 -19.25 L 11.902344 -13.175781 C 11.820312 -12.335938 11.324219 -11.929688 10.484375 -12.011719 Z M 7.285156 -12.328125 "/></g></g></g><g fill="#fbbe28" fill-opacity="1"><g transform="translate(191.377124, 353.343482)"><g><path d="M 13.082031 -26.25 C 13.066406 -26.570312 12.921875 -26.757812 12.535156 -26.738281 L 0.609375 -26.046875 C 0.316406 -26.03125 0.132812 -25.824219 0.152344 -25.5 L 1.589844 -0.613281 C 1.609375 -0.289062 1.816406 -0.105469 2.105469 -0.121094 L 14.03125 -0.8125 C 14.421875 -0.832031 14.539062 -1.035156 14.519531 -1.359375 L 14.332031 -4.601562 C 14.3125 -4.957031 14.175781 -5.109375 13.785156 -5.089844 L 5.683594 -4.621094 L 5.304688 -11.167969 L 11.496094 -11.523438 C 11.820312 -11.542969 12.003906 -11.75 11.980469 -12.105469 L 11.796875 -15.3125 C 11.777344 -15.671875 11.570312 -15.851562 11.246094 -15.835938 L 5.054688 -15.476562 L 4.683594 -21.957031 L 12.785156 -22.425781 C 13.171875 -22.449219 13.289062 -22.683594 13.269531 -23.007812 Z M 13.082031 -26.25 "/></g></g></g><g fill="#fbbe28" fill-opacity="1"><g transform="translate(216.614329, 351.177823)"><g><path d="M 0.671875 -26.714844 C -2.277344 -26.074219 -3.554688 -24.140625 -2.910156 -21.15625 L -1.292969 -13.667969 C -1.164062 -13.066406 -0.792969 -12.746094 -0.183594 -12.679688 L 7.871094 -11.828125 L 8.785156 -7.609375 C 8.96875 -6.753906 8.613281 -6.246094 7.789062 -6.066406 L 6.265625 -5.738281 C 5.472656 -5.566406 4.90625 -5.875 4.722656 -6.734375 L 4.195312 -9.175781 C 4.121094 -9.523438 3.925781 -9.648438 3.578125 -9.574219 L 0.277344 -8.859375 C -0.0390625 -8.792969 -0.195312 -8.59375 -0.121094 -8.242188 L 0.597656 -4.910156 C 1.242188 -1.929688 3.203125 -0.691406 6.15625 -1.328125 L 9.710938 -2.097656 C 12.691406 -2.742188 13.9375 -4.671875 13.292969 -7.652344 L 11.707031 -14.984375 C 11.578125 -15.585938 11.214844 -15.875 10.628906 -15.980469 L 2.542969 -16.824219 L 1.597656 -21.203125 C 1.417969 -22.027344 1.796875 -22.574219 2.59375 -22.746094 L 4.113281 -23.074219 C 4.972656 -23.257812 5.480469 -22.902344 5.660156 -22.078125 L 6.191406 -19.605469 C 6.261719 -19.285156 6.492188 -19.136719 6.808594 -19.207031 L 10.109375 -19.917969 C 10.460938 -19.992188 10.578125 -20.21875 10.507812 -20.535156 L 9.78125 -23.898438 C 9.136719 -26.882812 7.207031 -28.125 4.226562 -27.480469 Z M 0.671875 -26.714844 "/></g></g></g><g fill="#fbbe28" fill-opacity="1"><g transform="translate(240.878142, 345.094901)"><g/></g></g><g fill="#fbbe28" fill-opacity="1"><g transform="translate(256.738747, 339.147985)"><g><path d="M 3.683594 -25.765625 C 2.300781 -28.484375 0.117188 -29.195312 -2.601562 -27.8125 L -9.863281 -24.117188 C -10.152344 -23.972656 -10.238281 -23.710938 -10.09375 -23.417969 L 1.210938 -1.199219 C 1.359375 -0.910156 1.621094 -0.824219 1.910156 -0.972656 L 4.917969 -2.503906 C 5.207031 -2.648438 5.292969 -2.910156 5.144531 -3.199219 L 1.4375 -10.492188 L 3.433594 -11.507812 L 9.109375 -5.144531 C 9.300781 -4.914062 9.519531 -4.84375 9.808594 -4.988281 L 12.816406 -6.519531 C 13.136719 -6.683594 13.222656 -6.945312 12.957031 -7.246094 L 7.105469 -13.8125 C 8.183594 -15.125 8.261719 -16.765625 7.273438 -18.707031 Z M -0.503906 -14.3125 L -4.449219 -22.066406 L -1.585938 -23.523438 C -0.832031 -23.90625 -0.222656 -23.707031 0.160156 -22.953125 L 2.925781 -17.515625 C 3.308594 -16.761719 3.109375 -16.152344 2.359375 -15.769531 Z M -0.503906 -14.3125 "/></g></g></g><g fill="#fbbe28" fill-opacity="1"><g transform="translate(279.336005, 326.83743)"><g><path d="M -3.125 -29.160156 C -3.3125 -29.425781 -3.535156 -29.503906 -3.847656 -29.277344 L -13.523438 -22.269531 C -13.761719 -22.097656 -13.804688 -21.828125 -13.613281 -21.5625 L 1.011719 -1.371094 C 1.199219 -1.109375 1.472656 -1.066406 1.707031 -1.238281 L 11.382812 -8.246094 C 11.699219 -8.472656 11.691406 -8.707031 11.5 -8.96875 L 9.597656 -11.597656 C 9.386719 -11.886719 9.1875 -11.945312 8.871094 -11.714844 L 2.296875 -6.953125 L -1.546875 -12.265625 L 3.472656 -15.902344 C 3.734375 -16.09375 3.78125 -16.363281 3.570312 -16.652344 L 1.683594 -19.257812 C 1.476562 -19.546875 1.203125 -19.589844 0.941406 -19.398438 L -4.082031 -15.761719 L -7.890625 -21.019531 L -1.316406 -25.78125 C -1 -26.007812 -1.027344 -26.269531 -1.21875 -26.53125 Z M -3.125 -29.160156 "/></g></g></g><g fill="#fbbe28" fill-opacity="1"><g transform="translate(299.49763, 311.403018)"><g><path d="M -9.234375 -27.511719 C -9.511719 -27.234375 -9.53125 -26.9375 -9.324219 -26.59375 L 0.5625 -11.867188 L -14.164062 -21.746094 C -14.507812 -21.949219 -14.804688 -21.925781 -15.082031 -21.652344 L -17.257812 -19.46875 C -17.605469 -19.125 -17.558594 -18.804688 -17.167969 -18.550781 L 4.148438 -4.984375 C 4.492188 -4.78125 4.792969 -4.800781 5.066406 -5.078125 L 7.359375 -7.375 C 7.636719 -7.652344 7.65625 -7.949219 7.449219 -8.292969 L -6.136719 -29.605469 C -6.390625 -29.992188 -6.710938 -30.039062 -7.054688 -29.695312 Z M -9.234375 -27.511719 "/></g></g></g><g fill="#fbbe28" fill-opacity="1"><g transform="translate(317.869241, 291.868531)"><g><path d="M -14.652344 -24.085938 C -14.859375 -23.796875 -14.792969 -23.386719 -14.503906 -23.179688 L 1.507812 -11.640625 C 2.21875 -11.125 2.292969 -10.511719 1.800781 -9.828125 L 0.8125 -8.457031 C 0.320312 -7.773438 -0.289062 -7.648438 -1 -8.164062 L -17.011719 -19.703125 C -17.300781 -19.910156 -17.707031 -19.84375 -17.917969 -19.554688 L -19.738281 -17.027344 C -19.949219 -16.738281 -19.882812 -16.332031 -19.59375 -16.121094 L -2.84375 -4.050781 C -0.367188 -2.265625 1.898438 -2.632812 3.683594 -5.109375 L 5.808594 -8.058594 C 7.59375 -10.535156 7.222656 -12.800781 4.75 -14.582031 L -12 -26.65625 C -12.289062 -26.863281 -12.699219 -26.796875 -12.90625 -26.507812 Z M -14.652344 -24.085938 "/></g></g></g><g fill="#fbbe28" fill-opacity="1"><g transform="translate(332.11854, 270.888327)"><g><path d="M -16.101562 -24.511719 C -16.390625 -24.660156 -16.625 -24.632812 -16.800781 -24.285156 L -22.207031 -13.628906 C -22.335938 -13.371094 -22.25 -13.109375 -21.960938 -12.960938 L 0.269531 -1.683594 C 0.5625 -1.535156 0.824219 -1.621094 0.953125 -1.882812 L 6.359375 -12.535156 C 6.535156 -12.882812 6.421875 -13.085938 6.128906 -13.234375 L 3.234375 -14.703125 C 2.917969 -14.863281 2.714844 -14.820312 2.539062 -14.472656 L -1.132812 -7.234375 L -6.980469 -10.203125 L -4.175781 -15.730469 C -4.03125 -16.023438 -4.117188 -16.285156 -4.433594 -16.445312 L -7.300781 -17.898438 C -7.617188 -18.058594 -7.878906 -17.976562 -8.027344 -17.683594 L -10.832031 -12.15625 L -16.621094 -15.09375 L -12.949219 -22.332031 C -12.773438 -22.679688 -12.917969 -22.894531 -13.207031 -23.042969 Z M -16.101562 -24.511719 "/></g></g></g></svg>